#define icon_width 16
#define icon_height 16
static unsigned char icon_bits[] = {
   0x02, 0x00, 0x00, 0x06, 0x02, 0x43, 0x74, 0x3e, 0x71, 0x1e, 0xe8, 0x1e,
   0x50, 0xfd, 0xf8, 0x20, 0xc8, 0x1f, 0xe4, 0x5c, 0x00, 0x00, 0x3a, 0x2b,
   0xfb, 0x32, 0x00, 0x40, 0x40, 0x00, 0x00, 0x00 };
